<svg width="1200" height="630" viewBox="0 0 1200 630" fill="none" xmlns="http://www.w3.org/2000/svg">
<rect width="1200" height="630" fill="#262826"/>
<path d="M44.76 140V56H57.72V92H93V56H105.96V140H93V103.76H57.72V140H44.76ZM151.59 141.68C145.67 141.68 140.39 140.48 135.75 138.08C131.19 135.6 127.59 132.08 124.95 127.52C122.31 122.96 120.99 117.56 120.99 111.32V109.52C120.99 103.28 122.31 97.92 124.95 93.44C127.59 88.88 131.19 85.36 135.75 82.88C140.39 80.4 145.67 79.16 151.59 79.16C157.51 79.16 162.79 80.4 167.43 82.88C172.07 85.36 175.71 88.88 178.35 93.44C180.99 97.92 182.31 103.28 182.31 109.52V111.32C182.31 117.56 180.99 122.96 178.35 127.52C175.71 132.08 172.07 135.6 167.43 138.08C162.79 140.48 157.51 141.68 151.59 141.68ZM151.59 130.64C157.03 130.64 161.43 128.92 164.79 125.48C168.23 121.96 169.95 117.12 169.95 110.96V109.88C169.95 103.72 168.27 98.92 164.91 95.48C161.55 91.96 157.11 90.2 151.59 90.2C146.23 90.2 141.83 91.96 138.39 95.48C135.03 98.92 133.35 103.72 133.35 109.88V110.96C133.35 117.12 135.03 121.96 138.39 125.48C141.83 128.92 146.23 130.64 151.59 130.64ZM203.475 140L193.395 80.84H205.755L213.195 131.72H215.115L225.435 80.84H245.475L255.675 131.72H257.595L265.035 80.84H277.395L267.315 140H246.555L236.355 89.24H234.435L224.235 140H203.475ZM344.82 140C341.22 140 338.34 138.92 336.18 136.76C334.1 134.6 333.06 131.72 333.06 128.12V91.28H316.74V80.84H333.06V61.28H345.42V80.84H363.06V91.28H345.42V125.96C345.42 128.36 346.54 129.56 348.78 129.56H361.14V140H344.82ZM403.192 141.68C397.272 141.68 391.992 140.48 387.352 138.08C382.792 135.6 379.192 132.08 376.552 127.52C373.912 122.96 372.592 117.56 372.592 111.32V109.52C372.592 103.28 373.912 97.92 376.552 93.44C379.192 88.88 382.792 85.36 387.352 82.88C391.992 80.4 397.272 79.16 403.192 79.16C409.112 79.16 414.392 80.4 419.032 82.88C423.672 85.36 427.312 88.88 429.952 93.44C432.592 97.92 433.912 103.28 433.912 109.52V111.32C433.912 117.56 432.592 122.96 429.952 127.52C427.312 132.08 423.672 135.6 419.032 138.08C414.392 140.48 409.112 141.68 403.192 141.68ZM403.192 130.64C408.632 130.64 413.032 128.92 416.392 125.48C419.832 121.96 421.552 117.12 421.552 110.96V109.88C421.552 103.72 419.872 98.92 416.512 95.48C413.152 91.96 408.712 90.2 403.192 90.2C397.832 90.2 393.432 91.96 389.992 95.48C386.632 98.92 384.952 103.72 384.952 109.88V110.96C384.952 117.12 386.632 121.96 389.992 125.48C393.432 128.92 397.832 130.64 403.192 130.64ZM508.086 141.68C501.766 141.68 496.166 140.56 491.286 138.32C486.406 136.08 482.566 132.8 479.766 128.48C477.046 124.08 475.686 118.76 475.686 112.52V109.52H488.526V112.52C488.526 118.44 490.286 122.88 493.806 125.84C497.406 128.8 502.166 130.28 508.086 130.28C514.086 130.28 518.606 129.04 521.646 126.56C524.686 124 526.206 120.72 526.206 116.72C526.206 114.08 525.486 111.92 524.046 110.24C522.606 108.56 520.566 107.24 517.926 106.28C515.286 105.24 512.126 104.28 508.446 103.4L504.006 102.32C498.646 101.04 493.966 99.48 489.966 97.64C486.046 95.72 483.006 93.2 480.846 90.08C478.686 86.96 477.606 82.96 477.606 78.08C477.606 73.12 478.806 68.88 481.206 65.36C483.686 61.84 487.086 59.12 491.406 57.2C495.726 55.28 500.806 54.32 506.646 54.32C512.486 54.32 517.686 55.32 522.246 57.32C526.886 59.32 530.526 62.28 533.166 66.2C535.806 70.12 537.126 75.04 537.126 80.96V85.28H524.286V80.96C524.286 77.36 523.526 74.44 522.006 72.2C520.566 69.96 518.526 68.32 515.886 67.28C513.246 66.24 510.166 65.72 506.646 65.72C501.526 65.72 497.526 66.8 494.646 68.96C491.846 71.04 490.446 73.96 490.446 77.72C490.446 80.28 491.046 82.4 492.246 84.08C493.526 85.68 495.366 87 497.766 88.04C500.166 89.08 503.166 90 506.766 90.8L511.206 91.88C516.646 93.08 521.446 94.64 525.606 96.56C529.766 98.4 533.046 100.92 535.446 104.12C537.846 107.32 539.046 111.44 539.046 116.48C539.046 121.52 537.766 125.92 535.206 129.68C532.726 133.44 529.166 136.4 524.526 138.56C519.886 140.64 514.406 141.68 508.086 141.68ZM580.491 141.68C574.811 141.68 569.651 140.48 565.011 138.08C560.451 135.68 556.811 132.2 554.091 127.64C551.451 123.08 550.131 117.6 550.131 111.2V109.64C550.131 103.24 551.451 97.8 554.091 93.32C556.811 88.76 560.451 85.28 565.011 82.88C569.651 80.4 574.811 79.16 580.491 79.16C586.171 79.16 591.011 80.2 595.011 82.28C599.011 84.36 602.211 87.12 604.611 90.56C607.091 94 608.691 97.8 609.411 101.96L597.411 104.48C597.011 101.84 596.171 99.44 594.891 97.28C593.611 95.12 591.811 93.4 589.491 92.12C587.171 90.84 584.251 90.2 580.731 90.2C577.291 90.2 574.171 91 571.371 92.6C568.651 94.12 566.491 96.36 564.891 99.32C563.291 102.2 562.491 105.72 562.491 109.88V110.96C562.491 115.12 563.291 118.68 564.891 121.64C566.491 124.6 568.651 126.84 571.371 128.36C574.171 129.88 577.291 130.64 580.731 130.64C585.931 130.64 589.891 129.32 592.611 126.68C595.331 123.96 597.051 120.52 597.771 116.36L609.771 119.12C608.811 123.2 607.091 126.96 604.611 130.4C602.211 133.84 599.011 136.6 595.011 138.68C591.011 140.68 586.171 141.68 580.491 141.68ZM642.386 141.68C638.146 141.68 634.346 140.96 630.986 139.52C627.706 138.08 625.066 135.96 623.066 133.16C621.146 130.36 620.186 126.96 620.186 122.96C620.186 118.88 621.146 115.52 623.066 112.88C625.066 110.16 627.746 108.12 631.106 106.76C634.546 105.4 638.426 104.72 642.746 104.72H660.746V100.88C660.746 97.44 659.706 94.68 657.626 92.6C655.546 90.52 652.346 89.48 648.026 89.48C643.786 89.48 640.546 90.48 638.306 92.48C636.066 94.48 634.586 97.08 633.866 100.28L622.346 96.56C623.306 93.36 624.826 90.48 626.906 87.92C629.066 85.28 631.906 83.16 635.426 81.56C638.946 79.96 643.186 79.16 648.146 79.16C655.826 79.16 661.866 81.12 666.266 85.04C670.666 88.96 672.866 94.52 672.866 101.72V126.08C672.866 128.48 673.986 129.68 676.226 129.68H681.266V140H672.026C669.226 140 666.946 139.28 665.186 137.84C663.426 136.4 662.546 134.44 662.546 131.96V131.6H660.746C660.106 132.8 659.146 134.2 657.866 135.8C656.586 137.4 654.706 138.8 652.226 140C649.746 141.12 646.466 141.68 642.386 141.68ZM644.186 131.48C649.146 131.48 653.146 130.08 656.186 127.28C659.226 124.4 660.746 120.48 660.746 115.52V114.32H643.466C640.186 114.32 637.546 115.04 635.546 116.48C633.546 117.84 632.546 119.88 632.546 122.6C632.546 125.32 633.586 127.48 635.666 129.08C637.746 130.68 640.586 131.48 644.186 131.48ZM693.284 140V56H705.644V140H693.284ZM751.107 141.68C745.107 141.68 739.867 140.44 735.387 137.96C730.907 135.4 727.387 131.84 724.827 127.28C722.347 122.64 721.107 117.28 721.107 111.2V109.76C721.107 103.6 722.347 98.24 724.827 93.68C727.307 89.04 730.747 85.48 735.147 83C739.627 80.44 744.787 79.16 750.627 79.16C756.307 79.16 761.267 80.44 765.507 83C769.827 85.48 773.187 88.96 775.587 93.44C777.987 97.92 779.187 103.16 779.187 109.16V113.84H733.707C733.867 119.04 735.587 123.2 738.867 126.32C742.227 129.36 746.387 130.88 751.347 130.88C755.987 130.88 759.467 129.84 761.787 127.76C764.187 125.68 766.027 123.28 767.307 120.56L777.507 125.84C776.387 128.08 774.747 130.44 772.587 132.92C770.507 135.4 767.747 137.48 764.307 139.16C760.867 140.84 756.467 141.68 751.107 141.68ZM733.827 104.36H766.587C766.267 99.88 764.667 96.4 761.787 93.92C758.907 91.36 755.147 90.08 750.507 90.08C745.867 90.08 742.067 91.36 739.107 93.92C736.227 96.4 734.467 99.88 733.827 104.36ZM64.8 265V192.76H39V181H103.56V192.76H77.76V265H64.8ZM115.667 265V181H128.027V214.24H129.947C130.747 212.72 131.867 211.24 133.307 209.8C134.827 208.36 136.787 207.2 139.187 206.32C141.667 205.36 144.787 204.88 148.547 204.88C153.027 204.88 156.987 205.88 160.427 207.88C163.947 209.88 166.707 212.72 168.707 216.4C170.707 220 171.707 224.36 171.707 229.48V265H159.347V230.44C159.347 225.32 158.067 221.56 155.507 219.16C152.947 216.68 149.427 215.44 144.947 215.44C139.827 215.44 135.707 217.12 132.587 220.48C129.547 223.84 128.027 228.72 128.027 235.12V265H115.667ZM189.495 265V205.84H201.855V265H189.495ZM195.735 197.8C193.335 197.8 191.295 197.04 189.615 195.52C188.015 193.92 187.215 191.88 187.215 189.4C187.215 186.92 188.015 184.92 189.615 183.4C191.295 181.8 193.335 181 195.735 181C198.215 181 200.255 181.8 201.855 183.4C203.455 184.92 204.255 186.92 204.255 189.4C204.255 191.88 203.455 193.92 201.855 195.52C200.255 197.04 198.215 197.8 195.735 197.8ZM220.198 265V205.84H232.318V214.72H234.238C235.358 212.32 237.358 210.08 240.238 208C243.118 205.92 247.398 204.88 253.078 204.88C257.558 204.88 261.518 205.88 264.958 207.88C268.478 209.88 271.238 212.72 273.238 216.4C275.238 220 276.238 224.36 276.238 229.48V265H263.878V230.44C263.878 225.32 262.598 221.56 260.038 219.16C257.478 216.68 253.958 215.44 249.478 215.44C244.358 215.44 240.238 217.12 237.118 220.48C234.078 223.84 232.558 228.72 232.558 235.12V265H220.198ZM291.146 235.72V233.92C291.146 227.68 292.386 222.36 294.866 217.96C297.426 213.56 300.786 210.16 304.946 207.76C309.106 205.36 313.666 204.16 318.626 204.16C324.386 204.16 328.786 205.24 331.826 207.4C334.946 209.56 337.226 211.88 338.666 214.36H340.586V205.84H352.586V277.12C352.586 280.72 351.506 283.6 349.346 285.76C347.266 287.92 344.386 289 340.706 289H300.866V278.2H336.866C339.186 278.2 340.346 277 340.346 274.6V255.76H338.426C337.546 257.2 336.306 258.68 334.706 260.2C333.106 261.72 330.986 262.96 328.346 263.92C325.786 264.88 322.546 265.36 318.626 265.36C313.666 265.36 309.066 264.2 304.826 261.88C300.666 259.48 297.346 256.08 294.866 251.68C292.386 247.2 291.146 241.88 291.146 235.72ZM321.986 254.56C327.346 254.56 331.746 252.88 335.186 249.52C338.706 246.08 340.466 241.36 340.466 235.36V234.28C340.466 228.12 338.746 223.4 335.306 220.12C331.866 216.76 327.426 215.08 321.986 215.08C316.706 215.08 312.306 216.76 308.786 220.12C305.346 223.4 303.626 228.12 303.626 234.28V235.36C303.626 241.36 305.346 246.08 308.786 249.52C312.306 252.88 316.706 254.56 321.986 254.56ZM395.024 266.68C387.504 266.68 381.264 265 376.304 261.64C371.344 258.28 368.304 253.2 367.184 246.4L378.704 243.64C379.344 246.92 380.424 249.52 381.944 251.44C383.464 253.36 385.344 254.72 387.584 255.52C389.904 256.32 392.384 256.72 395.024 256.72C398.944 256.72 401.944 255.96 404.024 254.44C406.184 252.92 407.264 250.96 407.264 248.56C407.264 246.16 406.264 244.4 404.264 243.28C402.264 242.16 399.304 241.24 395.384 240.52L391.304 239.8C387.304 239.08 383.664 238.04 380.384 236.68C377.104 235.32 374.504 233.44 372.584 231.04C370.664 228.64 369.704 225.56 369.704 221.8C369.704 216.2 371.784 211.88 375.944 208.84C380.104 205.72 385.624 204.16 392.504 204.16C399.144 204.16 404.584 205.68 408.824 208.72C413.144 211.68 415.944 215.72 417.224 220.84L405.704 224.08C404.984 220.48 403.464 217.96 401.144 216.52C398.824 215 395.944 214.24 392.504 214.24C389.144 214.24 386.504 214.88 384.584 216.16C382.664 217.36 381.704 219.08 381.704 221.32C381.704 223.72 382.624 225.48 384.464 226.6C386.384 227.72 388.944 228.56 392.144 229.12L396.344 229.84C400.584 230.56 404.464 231.56 407.984 232.84C411.504 234.12 414.264 235.96 416.264 238.36C418.344 240.76 419.384 243.96 419.384 247.96C419.384 253.88 417.184 258.48 412.784 261.76C408.384 265.04 402.464 266.68 395.024 266.68Z" fill="#AD6DE6"/>
<path d="M39.648 577V553.336H44.592V577H39.648ZM42.144 550.12C41.184 550.12 40.368 549.816 39.696 549.208C39.056 548.568 38.736 547.752 38.736 546.76C38.736 545.768 39.056 544.968 39.696 544.36C40.368 543.72 41.184 543.4 42.144 543.4C43.136 543.4 43.952 543.72 44.592 544.36C45.232 544.968 45.552 545.768 45.552 546.76C45.552 547.752 45.232 548.568 44.592 549.208C43.952 549.816 43.136 550.12 42.144 550.12ZM51.9293 577V553.336H56.7773V556.888H57.5453C57.9933 555.928 58.7933 555.032 59.9453 554.2C61.0973 553.368 62.8093 552.952 65.0813 552.952C66.8733 552.952 68.4573 553.352 69.8333 554.152C71.2413 554.952 72.3453 556.088 73.1453 557.56C73.9453 559 74.3453 560.744 74.3453 562.792V577H69.4013V563.176C69.4013 561.128 68.8893 559.624 67.8653 558.664C66.8413 557.672 65.4333 557.176 63.6413 557.176C61.5933 557.176 59.9453 557.848 58.6973 559.192C57.4813 560.536 56.8733 562.488 56.8733 565.048V577H51.9293ZM92.3029 577V572.392H96.8149V548.008H92.3029V543.4H105.743C110.223 543.4 113.647 544.536 116.015 546.808C118.415 549.08 119.615 552.504 119.615 557.08V563.368C119.615 567.944 118.415 571.368 116.015 573.64C113.647 575.88 110.223 577 105.743 577H92.3029ZM102.047 572.296H105.791C108.703 572.296 110.863 571.56 112.271 570.088C113.679 568.616 114.383 566.424 114.383 563.512V556.888C114.383 553.944 113.679 551.752 112.271 550.312C110.863 548.872 108.703 548.152 105.791 548.152H102.047V572.296ZM136.465 577.672C134.065 577.672 131.969 577.176 130.177 576.184C128.385 575.16 126.977 573.736 125.953 571.912C124.961 570.056 124.465 567.912 124.465 565.48V564.904C124.465 562.44 124.961 560.296 125.953 558.472C126.945 556.616 128.321 555.192 130.081 554.2C131.873 553.176 133.937 552.664 136.273 552.664C138.545 552.664 140.529 553.176 142.225 554.2C143.953 555.192 145.297 556.584 146.257 558.376C147.217 560.168 147.697 562.264 147.697 564.664V566.536H129.505C129.569 568.616 130.257 570.28 131.569 571.528C132.913 572.744 134.577 573.352 136.561 573.352C138.417 573.352 139.809 572.936 140.737 572.104C141.697 571.272 142.433 570.312 142.945 569.224L147.025 571.336C146.577 572.232 145.921 573.176 145.057 574.168C144.225 575.16 143.121 575.992 141.745 576.664C140.369 577.336 138.609 577.672 136.465 577.672ZM129.553 562.744H142.657C142.529 560.952 141.889 559.56 140.737 558.568C139.585 557.544 138.081 557.032 136.225 557.032C134.369 557.032 132.849 557.544 131.665 558.568C130.513 559.56 129.809 560.952 129.553 562.744ZM163.344 577.672C160.336 577.672 157.84 577 155.856 575.656C153.872 574.312 152.656 572.28 152.208 569.56L156.816 568.456C157.072 569.768 157.504 570.808 158.112 571.576C158.72 572.344 159.472 572.888 160.368 573.208C161.296 573.528 162.288 573.688 163.344 573.688C164.912 573.688 166.112 573.384 166.944 572.776C167.808 572.168 168.24 571.384 168.24 570.424C168.24 569.464 167.84 568.76 167.04 568.312C166.24 567.864 165.056 567.496 163.488 567.208L161.856 566.92C160.256 566.632 158.8 566.216 157.488 565.672C156.176 565.128 155.136 564.376 154.368 563.416C153.6 562.456 153.216 561.224 153.216 559.72C153.216 557.48 154.048 555.752 155.712 554.536C157.376 553.288 159.584 552.664 162.336 552.664C164.992 552.664 167.168 553.272 168.864 554.488C170.592 555.672 171.712 557.288 172.224 559.336L167.616 560.632C167.328 559.192 166.72 558.184 165.792 557.608C164.864 557 163.712 556.696 162.336 556.696C160.992 556.696 159.936 556.952 159.168 557.464C158.4 557.944 158.016 558.632 158.016 559.528C158.016 560.488 158.384 561.192 159.12 561.64C159.888 562.088 160.912 562.424 162.192 562.648L163.872 562.936C165.568 563.224 167.12 563.624 168.528 564.136C169.936 564.648 171.04 565.384 171.84 566.344C172.672 567.304 173.088 568.584 173.088 570.184C173.088 572.552 172.208 574.392 170.448 575.704C168.688 577.016 166.32 577.672 163.344 577.672ZM178.867 577V553.336H183.811V577H178.867ZM181.363 550.12C180.403 550.12 179.587 549.816 178.915 549.208C178.275 548.568 177.955 547.752 177.955 546.76C177.955 545.768 178.275 544.968 178.915 544.36C179.587 543.72 180.403 543.4 181.363 543.4C182.355 543.4 183.171 543.72 183.811 544.36C184.451 544.968 184.771 545.768 184.771 546.76C184.771 547.752 184.451 548.568 183.811 549.208C183.171 549.816 182.355 550.12 181.363 550.12ZM189.996 565.288V564.568C189.996 562.072 190.492 559.944 191.484 558.184C192.508 556.424 193.852 555.064 195.516 554.104C197.18 553.144 199.004 552.664 200.988 552.664C203.292 552.664 205.052 553.096 206.268 553.96C207.516 554.824 208.428 555.752 209.004 556.744H209.772V553.336H214.572V581.848C214.572 583.288 214.14 584.44 213.276 585.304C212.444 586.168 211.292 586.6 209.82 586.6H193.884V582.28H208.284C209.212 582.28 209.676 581.8 209.676 580.84V573.304H208.908C208.556 573.88 208.06 574.472 207.42 575.08C206.78 575.688 205.932 576.184 204.876 576.568C203.852 576.952 202.556 577.144 200.988 577.144C199.004 577.144 197.164 576.68 195.468 575.752C193.804 574.792 192.476 573.432 191.484 571.672C190.492 569.88 189.996 567.752 189.996 565.288ZM202.332 572.824C204.476 572.824 206.236 572.152 207.612 570.808C209.02 569.432 209.724 567.544 209.724 565.144V564.712C209.724 562.248 209.036 560.36 207.66 559.048C206.284 557.704 204.508 557.032 202.332 557.032C200.22 557.032 198.46 557.704 197.052 559.048C195.676 560.36 194.988 562.248 194.988 564.712V565.144C194.988 567.544 195.676 569.432 197.052 570.808C198.46 572.152 200.22 572.824 202.332 572.824ZM221.851 577V553.336H226.699V556.888H227.467C227.915 555.928 228.715 555.032 229.867 554.2C231.019 553.368 232.731 552.952 235.003 552.952C236.795 552.952 238.379 553.352 239.755 554.152C241.163 554.952 242.267 556.088 243.067 557.56C243.867 559 244.267 560.744 244.267 562.792V577H239.323V563.176C239.323 561.128 238.811 559.624 237.787 558.664C236.763 557.672 235.355 557.176 233.563 557.176C231.515 557.176 229.867 557.848 228.619 559.192C227.403 560.536 226.795 562.488 226.795 565.048V577H221.851ZM270.961 577.672C269.265 577.672 267.745 577.384 266.401 576.808C265.089 576.232 264.033 575.384 263.233 574.264C262.465 573.144 262.081 571.784 262.081 570.184C262.081 568.552 262.465 567.208 263.233 566.152C264.033 565.064 265.105 564.248 266.449 563.704C267.825 563.16 269.377 562.888 271.105 562.888H278.305V561.352C278.305 559.976 277.889 558.872 277.057 558.04C276.225 557.208 274.945 556.792 273.217 556.792C271.521 556.792 270.225 557.192 269.329 557.992C268.433 558.792 267.841 559.832 267.553 561.112L262.945 559.624C263.329 558.344 263.937 557.192 264.769 556.168C265.633 555.112 266.769 554.264 268.177 553.624C269.585 552.984 271.281 552.664 273.265 552.664C276.337 552.664 278.753 553.448 280.513 555.016C282.273 556.584 283.153 558.808 283.153 561.688V571.432C283.153 572.392 283.601 572.872 284.497 572.872H286.513V577H282.817C281.697 577 280.785 576.712 280.081 576.136C279.377 575.56 279.025 574.776 279.025 573.784V573.64H278.305C278.049 574.12 277.665 574.68 277.153 575.32C276.641 575.96 275.889 576.52 274.897 577C273.905 577.448 272.593 577.672 270.961 577.672ZM271.681 573.592C273.665 573.592 275.265 573.032 276.481 571.912C277.697 570.76 278.305 569.192 278.305 567.208V566.728H271.393C270.081 566.728 269.025 567.016 268.225 567.592C267.425 568.136 267.025 568.952 267.025 570.04C267.025 571.128 267.441 571.992 268.273 572.632C269.105 573.272 270.241 573.592 271.681 573.592ZM291.32 577V553.336H296.168V556.888H296.936C297.384 555.928 298.184 555.032 299.336 554.2C300.488 553.368 302.2 552.952 304.472 552.952C306.264 552.952 307.848 553.352 309.224 554.152C310.632 554.952 311.736 556.088 312.536 557.56C313.336 559 313.736 560.744 313.736 562.792V577H308.792V563.176C308.792 561.128 308.28 559.624 307.256 558.664C306.232 557.672 304.824 557.176 303.032 557.176C300.984 557.176 299.336 557.848 298.088 559.192C296.872 560.536 296.264 562.488 296.264 565.048V577H291.32ZM330.643 577.672C328.691 577.672 326.883 577.192 325.219 576.232C323.555 575.272 322.211 573.896 321.187 572.104C320.195 570.28 319.699 568.088 319.699 565.528V564.808C319.699 562.28 320.195 560.104 321.187 558.28C322.179 556.456 323.507 555.064 325.171 554.104C326.835 553.144 328.659 552.664 330.643 552.664C332.179 552.664 333.459 552.856 334.483 553.24C335.539 553.624 336.403 554.12 337.075 554.728C337.747 555.304 338.259 555.912 338.611 556.552H339.379V543.4H344.323V577H339.475V573.64H338.707C338.099 574.664 337.171 575.592 335.923 576.424C334.707 577.256 332.947 577.672 330.643 577.672ZM332.035 573.352C334.179 573.352 335.939 572.664 337.315 571.288C338.723 569.912 339.427 567.944 339.427 565.384V564.952C339.427 562.424 338.739 560.472 337.363 559.096C335.987 557.72 334.211 557.032 332.035 557.032C329.923 557.032 328.163 557.72 326.755 559.096C325.379 560.472 324.691 562.424 324.691 564.952V565.384C324.691 567.944 325.379 569.912 326.755 571.288C328.163 572.664 329.923 573.352 332.035 573.352ZM360.586 577L370.186 543.4H379.306L388.858 577H383.53L381.322 569.08H368.17L365.962 577H360.586ZM369.466 564.28H380.026L375.13 546.616H374.362L369.466 564.28ZM393.554 577V553.336H398.402V556.12H399.17C399.554 555.128 400.162 554.408 400.994 553.96C401.858 553.48 402.914 553.24 404.162 553.24H406.994V557.704H403.97C402.37 557.704 401.058 558.152 400.034 559.048C399.01 559.912 398.498 561.256 398.498 563.08V577H393.554ZM422.265 577.672C419.993 577.672 417.929 577.192 416.073 576.232C414.249 575.272 412.793 573.88 411.705 572.056C410.649 570.232 410.121 568.04 410.121 565.48V564.856C410.121 562.296 410.649 560.12 411.705 558.328C412.793 556.504 414.249 555.112 416.073 554.152C417.929 553.16 419.993 552.664 422.265 552.664C424.537 552.664 426.473 553.08 428.073 553.912C429.673 554.744 430.953 555.848 431.913 557.224C432.905 558.6 433.545 560.12 433.833 561.784L429.033 562.792C428.873 561.736 428.537 560.776 428.025 559.912C427.513 559.048 426.793 558.36 425.865 557.848C424.937 557.336 423.769 557.08 422.361 557.08C420.985 557.08 419.737 557.4 418.617 558.04C417.529 558.648 416.665 559.544 416.025 560.728C415.385 561.88 415.065 563.288 415.065 564.952V565.384C415.065 567.048 415.385 568.472 416.025 569.656C416.665 570.84 417.529 571.736 418.617 572.344C419.737 572.952 420.985 573.256 422.361 573.256C424.441 573.256 426.025 572.728 427.113 571.672C428.201 570.584 428.889 569.208 429.177 567.544L433.977 568.648C433.593 570.28 432.905 571.784 431.913 573.16C430.953 574.536 429.673 575.64 428.073 576.472C426.473 577.272 424.537 577.672 422.265 577.672ZM439.679 577V543.4H444.623V556.696H445.391C445.711 556.088 446.159 555.496 446.735 554.92C447.343 554.344 448.127 553.88 449.087 553.528C450.079 553.144 451.327 552.952 452.831 552.952C454.623 552.952 456.207 553.352 457.583 554.152C458.991 554.952 460.095 556.088 460.895 557.56C461.695 559 462.095 560.744 462.095 562.792V577H457.151V563.176C457.151 561.128 456.639 559.624 455.615 558.664C454.591 557.672 453.183 557.176 451.391 557.176C449.343 557.176 447.695 557.848 446.447 559.192C445.231 560.536 444.623 562.488 444.623 565.048V577H439.679ZM469.211 577V553.336H474.155V577H469.211ZM471.707 550.12C470.747 550.12 469.931 549.816 469.259 549.208C468.619 548.568 468.299 547.752 468.299 546.76C468.299 545.768 468.619 544.968 469.259 544.36C469.931 543.72 470.747 543.4 471.707 543.4C472.699 543.4 473.515 543.72 474.155 544.36C474.795 544.968 475.115 545.768 475.115 546.76C475.115 547.752 474.795 548.568 474.155 549.208C473.515 549.816 472.699 550.12 471.707 550.12ZM490.372 577C488.932 577 487.78 576.568 486.916 575.704C486.084 574.84 485.668 573.688 485.668 572.248V557.512H479.14V553.336H485.668V545.512H490.612V553.336H497.668V557.512H490.612V571.384C490.612 572.344 491.06 572.824 491.956 572.824H496.9V577H490.372ZM513.48 577.672C511.08 577.672 508.984 577.176 507.192 576.184C505.4 575.16 503.992 573.736 502.968 571.912C501.976 570.056 501.48 567.912 501.48 565.48V564.904C501.48 562.44 501.976 560.296 502.968 558.472C503.96 556.616 505.336 555.192 507.096 554.2C508.888 553.176 510.952 552.664 513.288 552.664C515.56 552.664 517.544 553.176 519.24 554.2C520.968 555.192 522.312 556.584 523.272 558.376C524.232 560.168 524.712 562.264 524.712 564.664V566.536H506.52C506.584 568.616 507.272 570.28 508.584 571.528C509.928 572.744 511.592 573.352 513.576 573.352C515.432 573.352 516.824 572.936 517.752 572.104C518.712 571.272 519.448 570.312 519.96 569.224L524.04 571.336C523.592 572.232 522.936 573.176 522.072 574.168C521.24 575.16 520.136 575.992 518.76 576.664C517.384 577.336 515.624 577.672 513.48 577.672ZM506.568 562.744H519.672C519.544 560.952 518.904 559.56 517.752 558.568C516.6 557.544 515.096 557.032 513.24 557.032C511.384 557.032 509.864 557.544 508.68 558.568C507.528 559.56 506.824 560.952 506.568 562.744ZM541.656 577.672C539.384 577.672 537.32 577.192 535.464 576.232C533.64 575.272 532.184 573.88 531.096 572.056C530.04 570.232 529.512 568.04 529.512 565.48V564.856C529.512 562.296 530.04 560.12 531.096 558.328C532.184 556.504 533.64 555.112 535.464 554.152C537.32 553.16 539.384 552.664 541.656 552.664C543.928 552.664 545.864 553.08 547.464 553.912C549.064 554.744 550.344 555.848 551.304 557.224C552.296 558.6 552.936 560.12 553.224 561.784L548.424 562.792C548.264 561.736 547.928 560.776 547.416 559.912C546.904 559.048 546.184 558.36 545.256 557.848C544.328 557.336 543.16 557.08 541.752 557.08C540.376 557.08 539.128 557.4 538.008 558.04C536.92 558.648 536.056 559.544 535.416 560.728C534.776 561.88 534.456 563.288 534.456 564.952V565.384C534.456 567.048 534.776 568.472 535.416 569.656C536.056 570.84 536.92 571.736 538.008 572.344C539.128 572.952 540.376 573.256 541.752 573.256C543.832 573.256 545.416 572.728 546.504 571.672C547.592 570.584 548.28 569.208 548.568 567.544L553.368 568.648C552.984 570.28 552.296 571.784 551.304 573.16C550.344 574.536 549.064 575.64 547.464 576.472C545.864 577.272 543.928 577.672 541.656 577.672ZM567.059 577C565.619 577 564.467 576.568 563.603 575.704C562.771 574.84 562.355 573.688 562.355 572.248V557.512H555.827V553.336H562.355V545.512H567.299V553.336H574.355V557.512H567.299V571.384C567.299 572.344 567.747 572.824 568.643 572.824H573.587V577H567.059ZM589.236 577.432C587.444 577.432 585.844 577.032 584.436 576.232C583.028 575.432 581.924 574.296 581.124 572.824C580.324 571.352 579.924 569.592 579.924 567.544V553.336H584.868V567.208C584.868 569.256 585.38 570.776 586.404 571.768C587.428 572.728 588.852 573.208 590.676 573.208C592.692 573.208 594.308 572.536 595.524 571.192C596.772 569.816 597.396 567.848 597.396 565.288V553.336H602.34V577H597.492V573.448H596.724C596.276 574.408 595.476 575.32 594.324 576.184C593.172 577.016 591.476 577.432 589.236 577.432ZM609.648 577V553.336H614.496V556.12H615.264C615.648 555.128 616.256 554.408 617.088 553.96C617.952 553.48 619.008 553.24 620.256 553.24H623.088V557.704H620.064C618.464 557.704 617.152 558.152 616.128 559.048C615.104 559.912 614.592 561.256 614.592 563.08V577H609.648ZM638.215 577.672C635.815 577.672 633.719 577.176 631.927 576.184C630.135 575.16 628.727 573.736 627.703 571.912C626.711 570.056 626.215 567.912 626.215 565.48V564.904C626.215 562.44 626.711 560.296 627.703 558.472C628.695 556.616 630.071 555.192 631.831 554.2C633.623 553.176 635.687 552.664 638.023 552.664C640.295 552.664 642.279 553.176 643.975 554.2C645.703 555.192 647.047 556.584 648.007 558.376C648.967 560.168 649.447 562.264 649.447 564.664V566.536H631.255C631.319 568.616 632.007 570.28 633.319 571.528C634.663 572.744 636.327 573.352 638.311 573.352C640.167 573.352 641.559 572.936 642.487 572.104C643.447 571.272 644.183 570.312 644.695 569.224L648.775 571.336C648.327 572.232 647.671 573.176 646.807 574.168C645.975 575.16 644.871 575.992 643.495 576.664C642.119 577.336 640.359 577.672 638.215 577.672ZM631.303 562.744H644.407C644.279 560.952 643.639 559.56 642.487 558.568C641.335 557.544 639.831 557.032 637.975 557.032C636.119 557.032 634.599 557.544 633.415 558.568C632.263 559.56 631.559 560.952 631.303 562.744ZM655.302 566.968V562.456H691.398V566.968H655.302ZM705.914 577.672C704.218 577.672 702.698 577.384 701.354 576.808C700.042 576.232 698.986 575.384 698.186 574.264C697.418 573.144 697.034 571.784 697.034 570.184C697.034 568.552 697.418 567.208 698.186 566.152C698.986 565.064 700.058 564.248 701.402 563.704C702.778 563.16 704.33 562.888 706.058 562.888H713.258V561.352C713.258 559.976 712.842 558.872 712.01 558.04C711.178 557.208 709.898 556.792 708.17 556.792C706.474 556.792 705.178 557.192 704.282 557.992C703.386 558.792 702.794 559.832 702.506 561.112L697.898 559.624C698.282 558.344 698.89 557.192 699.722 556.168C700.586 555.112 701.722 554.264 703.13 553.624C704.538 552.984 706.234 552.664 708.218 552.664C711.29 552.664 713.706 553.448 715.466 555.016C717.226 556.584 718.106 558.808 718.106 561.688V571.432C718.106 572.392 718.554 572.872 719.45 572.872H721.466V577H717.77C716.65 577 715.738 576.712 715.034 576.136C714.33 575.56 713.978 574.776 713.978 573.784V573.64H713.258C713.002 574.12 712.618 574.68 712.106 575.32C711.594 575.96 710.842 576.52 709.85 577C708.858 577.448 707.546 577.672 705.914 577.672ZM706.634 573.592C708.618 573.592 710.218 573.032 711.434 571.912C712.65 570.76 713.258 569.192 713.258 567.208V566.728H706.346C705.034 566.728 703.978 567.016 703.178 567.592C702.378 568.136 701.978 568.952 701.978 570.04C701.978 571.128 702.394 571.992 703.226 572.632C704.058 573.272 705.194 573.592 706.634 573.592ZM726.273 577V553.336H731.121V556.12H731.889C732.273 555.128 732.881 554.408 733.713 553.96C734.577 553.48 735.633 553.24 736.881 553.24H739.713V557.704H736.689C735.089 557.704 733.777 558.152 732.753 559.048C731.729 559.912 731.217 561.256 731.217 563.08V577H726.273ZM754.984 577.672C752.712 577.672 750.648 577.192 748.792 576.232C746.968 575.272 745.512 573.88 744.424 572.056C743.368 570.232 742.84 568.04 742.84 565.48V564.856C742.84 562.296 743.368 560.12 744.424 558.328C745.512 556.504 746.968 555.112 748.792 554.152C750.648 553.16 752.712 552.664 754.984 552.664C757.256 552.664 759.192 553.08 760.792 553.912C762.392 554.744 763.672 555.848 764.632 557.224C765.624 558.6 766.264 560.12 766.552 561.784L761.752 562.792C761.592 561.736 761.256 560.776 760.744 559.912C760.232 559.048 759.512 558.36 758.584 557.848C757.656 557.336 756.488 557.08 755.08 557.08C753.704 557.08 752.456 557.4 751.336 558.04C750.248 558.648 749.384 559.544 748.744 560.728C748.104 561.88 747.784 563.288 747.784 564.952V565.384C747.784 567.048 748.104 568.472 748.744 569.656C749.384 570.84 750.248 571.736 751.336 572.344C752.456 572.952 753.704 573.256 755.08 573.256C757.16 573.256 758.744 572.728 759.832 571.672C760.92 570.584 761.608 569.208 761.896 567.544L766.696 568.648C766.312 570.28 765.624 571.784 764.632 573.16C763.672 574.536 762.392 575.64 760.792 576.472C759.192 577.272 757.256 577.672 754.984 577.672ZM772.398 577V543.4H777.342V556.696H778.11C778.43 556.088 778.878 555.496 779.454 554.92C780.062 554.344 780.846 553.88 781.806 553.528C782.798 553.144 784.046 552.952 785.55 552.952C787.342 552.952 788.926 553.352 790.302 554.152C791.71 554.952 792.814 556.088 793.614 557.56C794.414 559 794.814 560.744 794.814 562.792V577H789.87V563.176C789.87 561.128 789.358 559.624 788.334 558.664C787.31 557.672 785.902 557.176 784.11 557.176C782.062 557.176 780.414 557.848 779.166 559.192C777.95 560.536 777.342 562.488 777.342 565.048V577H772.398ZM801.929 577V553.336H806.873V577H801.929ZM804.425 550.12C803.465 550.12 802.649 549.816 801.977 549.208C801.337 548.568 801.017 547.752 801.017 546.76C801.017 545.768 801.337 544.968 801.977 544.36C802.649 543.72 803.465 543.4 804.425 543.4C805.417 543.4 806.233 543.72 806.873 544.36C807.513 544.968 807.833 545.768 807.833 546.76C807.833 547.752 807.513 548.568 806.873 549.208C806.233 549.816 805.417 550.12 804.425 550.12ZM823.907 577.672C820.899 577.672 818.403 577 816.419 575.656C814.435 574.312 813.219 572.28 812.771 569.56L817.379 568.456C817.635 569.768 818.067 570.808 818.675 571.576C819.283 572.344 820.035 572.888 820.931 573.208C821.859 573.528 822.851 573.688 823.907 573.688C825.475 573.688 826.675 573.384 827.507 572.776C828.371 572.168 828.803 571.384 828.803 570.424C828.803 569.464 828.403 568.76 827.603 568.312C826.803 567.864 825.619 567.496 824.051 567.208L822.419 566.92C820.819 566.632 819.363 566.216 818.051 565.672C816.739 565.128 815.699 564.376 814.931 563.416C814.163 562.456 813.779 561.224 813.779 559.72C813.779 557.48 814.611 555.752 816.275 554.536C817.939 553.288 820.147 552.664 822.898 552.664C825.555 552.664 827.731 553.272 829.427 554.488C831.155 555.672 832.275 557.288 832.787 559.336L828.179 560.632C827.891 559.192 827.283 558.184 826.355 557.608C825.427 557 824.275 556.696 822.898 556.696C821.555 556.696 820.499 556.952 819.731 557.464C818.963 557.944 818.579 558.632 818.579 559.528C818.579 560.488 818.947 561.192 819.683 561.64C820.451 562.088 821.475 562.424 822.755 562.648L824.435 562.936C826.131 563.224 827.683 563.624 829.091 564.136C830.499 564.648 831.603 565.384 832.403 566.344C833.235 567.304 833.651 568.584 833.651 570.184C833.651 572.552 832.771 574.392 831.011 575.704C829.251 577.016 826.883 577.672 823.907 577.672ZM850.421 577.672C848.149 577.672 846.085 577.192 844.229 576.232C842.405 575.272 840.949 573.88 839.861 572.056C838.805 570.232 838.277 568.04 838.277 565.48V564.856C838.277 562.296 838.805 560.12 839.861 558.328C840.949 556.504 842.405 555.112 844.229 554.152C846.085 553.16 848.149 552.664 850.421 552.664C852.693 552.664 854.629 553.08 856.229 553.912C857.829 554.744 859.109 555.848 860.069 557.224C861.061 558.6 861.701 560.12 861.989 561.784L857.189 562.792C857.029 561.736 856.693 560.776 856.181 559.912C855.669 559.048 854.949 558.36 854.021 557.848C853.093 557.336 851.925 557.08 850.517 557.08C849.141 557.08 847.893 557.4 846.773 558.04C845.685 558.648 844.821 559.544 844.181 560.728C843.541 561.88 843.221 563.288 843.221 564.952V565.384C843.221 567.048 843.541 568.472 844.181 569.656C844.821 570.84 845.685 571.736 846.773 572.344C847.893 572.952 849.141 573.256 850.517 573.256C852.597 573.256 854.181 572.728 855.269 571.672C856.357 570.584 857.045 569.208 857.333 567.544L862.133 568.648C861.749 570.28 861.061 571.784 860.069 573.16C859.109 574.536 857.829 575.64 856.229 576.472C854.629 577.272 852.693 577.672 850.421 577.672ZM875.18 577.672C873.484 577.672 871.964 577.384 870.62 576.808C869.308 576.232 868.252 575.384 867.452 574.264C866.684 573.144 866.3 571.784 866.3 570.184C866.3 568.552 866.684 567.208 867.452 566.152C868.252 565.064 869.324 564.248 870.668 563.704C872.044 563.16 873.596 562.888 875.324 562.888H882.524V561.352C882.524 559.976 882.108 558.872 881.276 558.04C880.444 557.208 879.164 556.792 877.436 556.792C875.74 556.792 874.444 557.192 873.548 557.992C872.652 558.792 872.06 559.832 871.772 561.112L867.164 559.624C867.548 558.344 868.156 557.192 868.988 556.168C869.852 555.112 870.988 554.264 872.396 553.624C873.804 552.984 875.5 552.664 877.484 552.664C880.556 552.664 882.972 553.448 884.732 555.016C886.492 556.584 887.372 558.808 887.372 561.688V571.432C887.372 572.392 887.82 572.872 888.716 572.872H890.732V577H887.036C885.916 577 885.004 576.712 884.3 576.136C883.596 575.56 883.244 574.776 883.244 573.784V573.64H882.524C882.268 574.12 881.884 574.68 881.372 575.32C880.86 575.96 880.108 576.52 879.116 577C878.124 577.448 876.812 577.672 875.18 577.672ZM875.9 573.592C877.884 573.592 879.484 573.032 880.7 571.912C881.916 570.76 882.524 569.192 882.524 567.208V566.728H875.612C874.3 566.728 873.244 567.016 872.444 567.592C871.644 568.136 871.243 568.952 871.243 570.04C871.243 571.128 871.66 571.992 872.492 572.632C873.324 573.272 874.46 573.592 875.9 573.592ZM895.539 577V543.4H900.483V577H895.539ZM918.668 577.672C916.268 577.672 914.172 577.176 912.38 576.184C910.588 575.16 909.18 573.736 908.156 571.912C907.164 570.056 906.668 567.912 906.668 565.48V564.904C906.668 562.44 907.164 560.296 908.156 558.472C909.148 556.616 910.524 555.192 912.284 554.2C914.076 553.176 916.14 552.664 918.476 552.664C920.748 552.664 922.732 553.176 924.428 554.2C926.156 555.192 927.5 556.584 928.46 558.376C929.42 560.168 929.9 562.264 929.9 564.664V566.536H911.708C911.772 568.616 912.46 570.28 913.772 571.528C915.116 572.744 916.78 573.352 918.764 573.352C920.62 573.352 922.012 572.936 922.94 572.104C923.9 571.272 924.636 570.312 925.148 569.224L929.228 571.336C928.78 572.232 928.124 573.176 927.26 574.168C926.428 575.16 925.324 575.992 923.948 576.664C922.572 577.336 920.812 577.672 918.668 577.672ZM911.756 562.744H924.86C924.732 560.952 924.092 559.56 922.94 558.568C921.788 557.544 920.284 557.032 918.428 557.032C916.572 557.032 915.052 557.544 913.868 558.568C912.716 559.56 912.012 560.952 911.756 562.744ZM938.499 577.672C937.379 577.672 936.435 577.304 935.667 576.568C934.931 575.832 934.563 574.888 934.563 573.736C934.563 572.584 934.931 571.656 935.667 570.952C936.435 570.216 937.379 569.848 938.499 569.848C939.619 569.848 940.547 570.216 941.283 570.952C942.051 571.688 942.435 572.616 942.435 573.736C942.435 574.888 942.051 575.832 941.283 576.568C940.547 577.304 939.619 577.672 938.499 577.672ZM956.133 577.672C954.437 577.672 952.917 577.384 951.573 576.808C950.261 576.232 949.205 575.384 948.405 574.264C947.637 573.144 947.253 571.784 947.253 570.184C947.253 568.552 947.637 567.208 948.405 566.152C949.205 565.064 950.277 564.248 951.621 563.704C952.997 563.16 954.549 562.888 956.277 562.888H963.477V561.352C963.477 559.976 963.061 558.872 962.229 558.04C961.397 557.208 960.117 556.792 958.389 556.792C956.693 556.792 955.397 557.192 954.501 557.992C953.605 558.792 953.013 559.832 952.725 561.112L948.117 559.624C948.501 558.344 949.109 557.192 949.941 556.168C950.805 555.112 951.941 554.264 953.349 553.624C954.757 552.984 956.453 552.664 958.437 552.664C961.509 552.664 963.925 553.448 965.685 555.016C967.445 556.584 968.325 558.808 968.325 561.688V571.432C968.325 572.392 968.773 572.872 969.669 572.872H971.685V577H967.989C966.869 577 965.957 576.712 965.253 576.136C964.549 575.56 964.197 574.776 964.197 573.784V573.64H963.477C963.221 574.12 962.837 574.68 962.325 575.32C961.813 575.96 961.061 576.52 960.069 577C959.077 577.448 957.765 577.672 956.133 577.672ZM956.853 573.592C958.837 573.592 960.437 573.032 961.653 571.912C962.869 570.76 963.477 569.192 963.477 567.208V566.728H956.565C955.253 566.728 954.197 567.016 953.397 567.592C952.597 568.136 952.197 568.952 952.197 570.04C952.197 571.128 952.613 571.992 953.445 572.632C954.277 573.272 955.413 573.592 956.853 573.592ZM976.492 586.6V553.336H981.34V556.744H982.108C982.716 555.688 983.628 554.744 984.844 553.912C986.092 553.08 987.868 552.664 990.172 552.664C992.156 552.664 993.964 553.144 995.596 554.104C997.26 555.064 998.588 556.456 999.58 558.28C1000.6 560.072 1001.12 562.248 1001.12 564.808V565.528C1001.12 568.088 1000.62 570.28 999.628 572.104C998.636 573.896 997.308 575.272 995.644 576.232C993.98 577.192 992.156 577.672 990.172 577.672C988.636 577.672 987.34 577.48 986.284 577.096C985.228 576.712 984.38 576.232 983.74 575.656C983.1 575.048 982.588 574.424 982.204 573.784H981.436V586.6H976.492ZM988.732 573.352C990.908 573.352 992.684 572.664 994.06 571.288C995.436 569.912 996.124 567.944 996.124 565.384V564.952C996.124 562.424 995.42 560.472 994.012 559.096C992.636 557.72 990.876 557.032 988.732 557.032C986.62 557.032 984.86 557.72 983.452 559.096C982.076 560.472 981.388 562.424 981.388 564.952V565.384C981.388 567.944 982.076 569.912 983.452 571.288C984.86 572.664 986.62 573.352 988.732 573.352ZM1007.24 586.6V553.336H1012.09V556.744H1012.86C1013.47 555.688 1014.38 554.744 1015.59 553.912C1016.84 553.08 1018.62 552.664 1020.92 552.664C1022.91 552.664 1024.71 553.144 1026.35 554.104C1028.01 555.064 1029.34 556.456 1030.33 558.28C1031.35 560.072 1031.87 562.248 1031.87 564.808V565.528C1031.87 568.088 1031.37 570.28 1030.38 572.104C1029.39 573.896 1028.06 575.272 1026.39 576.232C1024.73 577.192 1022.91 577.672 1020.92 577.672C1019.39 577.672 1018.09 577.48 1017.03 577.096C1015.98 576.712 1015.13 576.232 1014.49 575.656C1013.85 575.048 1013.34 574.424 1012.95 573.784H1012.19V586.6H1007.24ZM1019.48 573.352C1021.66 573.352 1023.43 572.664 1024.81 571.288C1026.19 569.912 1026.87 567.944 1026.87 565.384V564.952C1026.87 562.424 1026.17 560.472 1024.76 559.096C1023.39 557.72 1021.63 557.032 1019.48 557.032C1017.37 557.032 1015.61 557.72 1014.2 559.096C1012.83 560.472 1012.14 562.424 1012.14 564.952V565.384C1012.14 567.944 1012.83 569.912 1014.2 571.288C1015.61 572.664 1017.37 573.352 1019.48 573.352Z" fill="#AD6DE6"/>
</svg>
